<svg width="280" height="79" viewBox="0 0 280 79" fill="none" xmlns="http://www.w3.org/2000/svg">
<g clip-path="url(#clip0_20_1290)">
<path d="M2.51104 61.3617C4.11024 59.725 5.669 58.125 7.24798 56.5085C7.15607 56.4552 7.06784 56.413 6.99063 56.3579C6.64874 56.1191 6.28111 55.9078 5.97413 55.6305C4.908 54.6679 4.67639 53.4996 5.25174 52.1587C5.59915 51.3486 6.16714 50.713 6.88402 50.2097C7.27004 49.9396 7.2829 49.5318 6.90608 49.2379C6.72778 49.0983 6.51823 49.0432 6.29213 49.0304C5.78848 49.001 5.30688 49.1222 4.82712 49.2361C4.05877 49.4198 3.29042 49.6053 2.53861 49.8404C2.00371 50.0076 1.49454 50.2593 1.15632 50.7534C0.939414 50.0921 1.55336 49.0799 2.54413 48.4885C2.23715 48.1156 1.85298 47.919 1.38425 47.8253C0.926547 47.7335 0.492742 47.8731 0.00195312 47.9172C0.375099 47.3496 0.816258 46.9234 1.40447 46.6736C2.0129 46.4146 2.6489 46.3429 3.31064 46.4127C4.48339 46.5395 5.61937 46.8462 6.77006 47.0722C7.50532 47.2155 8.24058 47.3606 8.99423 47.3036C9.16702 47.2908 9.34348 47.2504 9.5034 47.1842C9.77912 47.0722 9.83611 46.8297 9.65413 46.5983C9.5806 46.5046 9.4795 46.4311 9.38576 46.3539C8.88026 45.9443 8.3619 45.5622 7.74796 45.3161C7.32886 45.1489 6.941 44.9138 6.61381 44.5923C6.21861 44.2029 6.1653 43.9347 6.40794 43.4406C6.68182 42.8785 7.09173 42.4137 7.55495 42.0041C7.99978 41.611 8.47035 41.2473 8.93173 40.8689C9.45928 40.4353 9.98867 40.0037 10.5162 39.5701C10.7607 39.3681 10.8783 39.392 10.9923 39.7024C11.0861 39.9596 11.1541 40.2259 11.2368 40.4868C11.5897 41.5944 11.9445 42.7003 12.2992 43.808C12.4206 44.1845 12.643 44.4692 13.0253 44.6052C13.097 44.6309 13.1705 44.6548 13.2459 44.6658C13.597 44.7154 13.744 44.6162 13.801 44.2727C13.8378 44.0559 13.8433 43.8355 13.8672 43.6169C13.8856 43.4534 13.8892 43.2844 13.9389 43.1301C14.0657 42.7297 14.0418 42.3366 13.8451 41.9784C13.4885 41.3318 13.5106 40.6503 13.5786 39.9541C13.6319 39.4177 13.7256 38.8923 13.8562 38.367C14.0455 37.6065 13.7275 37.0076 12.9996 36.6751C12.6301 36.5061 12.2459 36.3739 11.8728 36.2104C11.2846 35.9514 10.735 35.6299 10.2809 35.1652C9.7828 34.6545 9.54016 34.0428 9.49788 33.3301C9.33796 30.6408 10.2497 28.3244 11.9334 26.2781C12.3323 25.7931 12.7606 25.3339 13.1889 24.8765C13.3065 24.7498 13.3507 24.634 13.3249 24.4669C13.1466 23.2508 12.9738 22.0329 12.8029 20.8151C12.6944 20.0435 12.6007 19.2684 12.4886 18.4968C12.3783 17.7364 12.4389 16.9814 12.5547 16.2319C12.7919 14.7109 13.1558 13.2212 13.6687 11.7682C14.3892 9.73284 15.3579 7.83161 16.709 6.13613C17.4461 5.21031 18.2677 4.36165 19.2309 3.6728C19.6188 3.39542 20.0765 3.20622 20.5195 3.01701C21.8191 2.46593 23.1811 2.12243 24.5561 1.83219C25.3391 1.66687 26.1332 1.54379 26.9144 1.36377C27.4696 1.23702 28.01 1.04598 28.5578 0.888007C29.4971 0.616141 30.4511 0.397546 31.4179 0.26345C31.951 0.189973 32.4877 0.17344 33.0318 0.213853C34.3259 0.309373 35.6126 0.505925 36.914 0.520621C37.8772 0.531642 38.8239 0.426937 39.7705 0.274472C41.1326 0.0558766 42.5002 -0.0892411 43.8788 0.0522028C45.4688 0.213853 46.9522 0.704314 48.2867 1.58604C48.9687 2.03609 49.3786 2.7231 49.6543 3.48359C49.8822 4.10999 49.9613 4.76394 49.9815 5.42523C49.9907 5.70077 49.9815 5.97631 49.9833 6.25185C49.9852 6.5127 49.9944 6.498 50.2388 6.59352C50.851 6.83416 51.4722 7.0601 52.0641 7.34483C53.4814 8.02817 54.4611 9.11747 54.939 10.6238C55.1614 11.3236 55.3508 12.0327 55.5364 12.7436C55.6247 13.0797 55.7625 13.3681 55.9923 13.64C56.9206 14.733 57.7569 15.8921 58.3506 17.2073C58.472 17.4755 58.5565 17.7621 58.6429 18.045C58.7955 18.5409 58.7036 19.0314 58.5473 19.5035C58.3451 20.106 58.1025 20.6957 57.8782 21.289C57.7073 21.739 57.5143 22.1836 57.4536 22.6685C57.4077 23.0414 57.4628 23.3886 57.6338 23.7229C58.2036 24.8379 58.7587 25.9621 59.3377 27.0717C60.2292 28.7763 61.1336 30.4737 62.038 32.171C62.2273 32.5255 62.3652 32.8947 62.3891 33.2933C62.4258 33.9216 62.1906 34.3092 61.5711 34.3973C61.4369 34.4157 61.288 34.3882 61.1557 34.3459C60.7164 34.2081 60.2678 34.1567 59.8212 34.2596C59.0308 34.4414 58.6282 35.0954 58.5161 35.8651C58.4039 36.6255 58.5032 37.3475 58.8322 38.0492C59.1649 38.7545 58.9701 39.0393 58.3837 39.3718C58.0547 39.5591 57.9848 39.7373 58.1282 40.0808C58.1999 40.2498 58.3047 40.4115 58.4223 40.5529C58.7679 40.9625 58.7183 41.5026 58.2734 41.8057C58.1319 41.9031 57.961 41.9637 57.7955 42.0169C57.4279 42.1308 57.2827 42.2851 57.2514 42.6654C57.2055 43.2293 57.358 43.7565 57.608 44.2525C57.8451 44.7246 58.0602 45.204 58.1484 45.7312C58.2973 46.6166 58.1301 47.4212 57.5088 48.0898C56.8636 48.7842 56.1228 49.3481 55.1798 49.5796C54.9262 49.6421 54.6615 49.6861 54.4004 49.6935C53.2461 49.7247 52.0899 49.7376 50.9337 49.7615C50.5771 49.7688 50.2315 49.8404 49.919 50.0149C49.544 50.2225 49.1782 50.4466 48.8106 50.6671C48.6966 50.735 48.5863 50.8067 48.4779 50.882C47.965 51.2383 47.4191 51.4992 46.7813 51.5469C46.3144 51.5819 45.9909 51.85 45.7868 52.2634C45.7243 52.3919 45.6673 52.5224 45.6232 52.6583C45.2795 53.6998 44.9339 54.7395 44.5975 55.7829C44.4192 56.3358 44.2446 56.8906 44.2317 57.4821C44.2226 57.866 44.3494 58.182 44.6766 58.384C45.2096 58.7128 45.7354 59.0563 46.296 59.3337C48.1452 60.2448 50.0991 60.8694 52.0899 61.3874C53.5475 61.7658 55.0217 62.056 56.507 62.2948C57.1687 62.4014 57.836 62.4749 58.4977 62.5759C59.0105 62.653 59.5068 62.789 59.9682 63.0351C60.2531 63.1876 60.5013 63.3805 60.698 63.6432C60.7917 63.7681 60.8009 63.8562 60.6906 63.9848C60.5178 64.1832 60.3579 64.3963 60.2219 64.6222C60.1098 64.8078 60.0234 65.0135 59.9572 65.2211C59.834 65.605 59.8855 65.9669 60.187 66.2553C60.4792 66.5363 60.788 66.799 61.1005 67.0819C60.755 67.2674 60.3597 67.4511 60.2917 67.9453C60.2292 68.4045 60.437 68.7774 60.6649 69.1668C60.516 69.323 60.3653 69.4773 60.2182 69.6352C60.0859 69.7785 60.0252 69.942 60.0362 70.1441C60.0638 70.6933 60.0748 71.2425 60.0932 71.8193C59.5124 71.8671 58.9352 71.9149 58.3139 71.9663C58.6245 72.4145 58.9094 72.8278 59.2127 73.2632C59.1337 73.3164 59.0694 73.3716 58.9977 73.4101C58.5988 73.6195 58.1999 73.8308 57.7955 74.0292C57.6521 74.099 57.5878 74.1963 57.5621 74.3525C57.5216 74.6005 57.4738 74.8521 57.3874 75.0873C57.2643 75.4252 57.0235 75.6475 56.6191 75.484C56.4665 75.4216 56.3029 75.3885 56.154 75.3242C56.0162 75.2636 55.8893 75.1773 55.7276 75.0854C55.4905 75.7192 55.2386 76.3364 55.2497 77.0583C55.0052 77.1024 54.7607 77.1593 54.5144 77.1905C53.588 77.3099 52.656 77.3926 51.7333 77.5414C50.6616 77.7159 49.5992 77.9529 48.5312 78.1457C47.8731 78.2651 47.2096 78.3643 46.546 78.4488C45.1563 78.627 43.7575 78.6693 42.3587 78.6711C41.4672 78.6711 40.5756 78.6325 39.6841 78.6013C39.2117 78.5848 38.7375 78.5554 38.2669 78.5131C37.5997 78.4525 36.9287 78.4029 36.267 78.2982C35.1604 78.1255 34.0539 77.951 32.9601 77.7122C29.8242 77.0289 26.8703 75.8882 24.126 74.1963C21.286 72.4439 18.5416 70.5519 15.8064 68.6451C13.7661 67.2233 11.7312 65.7924 9.6045 64.501C7.97589 63.5127 6.31235 62.5961 4.50912 61.9587C3.95216 61.7621 3.37498 61.6225 2.80515 61.4572C2.73162 61.4352 2.65993 61.4113 2.51288 61.3654L2.51104 61.3617Z" fill="white"/>
</g>
<path d="M78.8348 38.6067V33.0451H79.7562C80.0699 32.8197 80.3572 32.5015 80.6179 32.0906C80.8786 31.6752 81.1018 31.1029 81.2874 30.3737C81.473 29.6401 81.6056 28.6811 81.6851 27.4968L82.0696 21.7563H91.0516V33.0451H92.5365V38.5934H89.7789V35.332H81.5923V38.6067H78.8348ZM83.0705 33.0451H88.294V24.1228H84.6548L84.4427 27.4968C84.3853 28.3939 84.2902 29.1894 84.1577 29.8832C84.0295 30.577 83.8726 31.1846 83.687 31.7061C83.5058 32.2231 83.3003 32.6695 83.0705 33.0451ZM95.2252 39.1502C94.8672 39.1502 94.5313 39.1215 94.2176 39.064C93.9082 39.011 93.6519 38.9425 93.4486 38.8585L94.085 36.7506C94.4164 36.8522 94.7147 36.9075 94.9799 36.9163C95.2495 36.9251 95.4815 36.8633 95.6759 36.7307C95.8748 36.5981 96.0361 36.3728 96.1598 36.0546L96.3255 35.6237L92.6731 25.1502H95.6428L97.7507 32.6275H97.8568L99.9846 25.1502H102.974L99.0168 36.4324C98.8268 36.9804 98.5683 37.4577 98.2413 37.8642C97.9187 38.2752 97.5099 38.5912 97.0149 38.8121C96.52 39.0375 95.9234 39.1502 95.2252 39.1502ZM112.138 21.4116L112.999 23.2544C112.712 23.493 112.394 23.6698 112.045 23.7847C111.696 23.8952 111.278 23.9681 110.792 24.0034C110.31 24.0388 109.722 24.0631 109.029 24.0763C108.242 24.0852 107.601 24.2111 107.106 24.4542C106.611 24.6972 106.236 25.0795 105.979 25.601C105.723 26.118 105.555 26.7942 105.476 27.6294H105.575C105.88 27.0063 106.309 26.5246 106.861 26.1843C107.418 25.844 108.105 25.6739 108.923 25.6739C109.789 25.6739 110.547 25.8639 111.196 26.244C111.85 26.624 112.359 27.1698 112.721 27.8813C113.083 28.5928 113.264 29.4457 113.264 30.44C113.264 31.4741 113.061 32.3734 112.655 33.1379C112.252 33.898 111.68 34.488 110.938 34.9078C110.195 35.3232 109.312 35.5309 108.286 35.5309C107.257 35.5309 106.368 35.3144 105.621 34.8813C104.879 34.4482 104.305 33.8096 103.898 32.9656C103.496 32.1215 103.295 31.083 103.295 29.85V29.0148C103.295 26.5621 103.772 24.7436 104.727 23.5593C105.681 22.375 107.084 21.774 108.936 21.7563C109.44 21.7474 109.895 21.7452 110.301 21.7496C110.708 21.7541 111.064 21.7342 111.369 21.69C111.678 21.6458 111.934 21.553 112.138 21.4116ZM108.3 33.3434C108.733 33.3434 109.104 33.2307 109.413 33.0053C109.727 32.7799 109.968 32.4573 110.136 32.0375C110.308 31.6177 110.394 31.1161 110.394 30.5328C110.394 29.9539 110.308 29.4633 110.136 29.0612C109.968 28.6546 109.727 28.3453 109.413 28.1332C109.099 27.921 108.724 27.815 108.286 27.815C107.959 27.815 107.665 27.8746 107.405 27.994C107.144 28.1133 106.921 28.29 106.735 28.5243C106.554 28.7541 106.413 29.0391 106.311 29.3794C106.214 29.7152 106.165 30.0997 106.165 30.5328C106.165 31.4034 106.353 32.0906 106.728 32.5943C107.109 33.0937 107.632 33.3434 108.3 33.3434ZM119.032 35.5309C117.985 35.5309 117.083 35.3188 116.328 34.8945C115.576 34.4659 114.998 33.8604 114.591 33.0782C114.184 32.2916 113.981 31.3614 113.981 30.2875C113.981 29.2402 114.184 28.321 114.591 27.5299C114.998 26.7389 115.57 26.1224 116.308 25.6805C117.05 25.2386 117.921 25.0176 118.92 25.0176C119.591 25.0176 120.217 25.1259 120.796 25.3424C121.379 25.5546 121.887 25.875 122.32 26.3036C122.758 26.7323 123.098 27.2714 123.341 27.921C123.584 28.5662 123.706 29.3219 123.706 30.1881V30.9637H115.108V29.2137H121.047C121.047 28.8071 120.959 28.4469 120.782 28.1332C120.605 27.8194 120.36 27.5741 120.046 27.3974C119.737 27.2162 119.377 27.1256 118.966 27.1256C118.537 27.1256 118.157 27.225 117.826 27.4239C117.499 27.6183 117.242 27.8813 117.057 28.2127C116.871 28.5397 116.776 28.9043 116.772 29.3065V30.9703C116.772 31.4741 116.865 31.9094 117.05 32.2762C117.24 32.643 117.508 32.9258 117.852 33.1246C118.197 33.3235 118.606 33.4229 119.079 33.4229C119.392 33.4229 119.68 33.3787 119.94 33.2904C120.201 33.202 120.424 33.0694 120.61 32.8926C120.796 32.7159 120.937 32.4993 121.034 32.243L123.646 32.4154C123.513 33.0429 123.242 33.5909 122.831 34.0593C122.424 34.5233 121.898 34.8857 121.253 35.1464C120.612 35.4027 119.872 35.5309 119.032 35.5309ZM131.888 29.1142V31.3349H126.572V29.1142H131.888ZM127.5 25.1502V35.332H124.802V25.1502H127.5ZM133.658 25.1502V35.332H130.98V25.1502H133.658ZM139.702 35.5309C138.659 35.5309 137.762 35.3099 137.011 34.868C136.264 34.4217 135.69 33.803 135.287 33.012C134.89 32.2209 134.691 31.3106 134.691 30.2809C134.691 29.238 134.892 28.3232 135.294 27.5366C135.701 26.7455 136.277 26.1291 137.024 25.6871C137.771 25.2408 138.659 25.0176 139.689 25.0176C140.577 25.0176 141.355 25.1789 142.022 25.5015C142.69 25.8241 143.218 26.2771 143.607 26.8604C143.996 27.4438 144.21 28.1287 144.25 28.9154H141.585C141.51 28.4072 141.311 27.9984 140.988 27.689C140.67 27.3753 140.252 27.2184 139.735 27.2184C139.298 27.2184 138.916 27.3377 138.589 27.5763C138.266 27.8106 138.014 28.1531 137.833 28.6038C137.652 29.0546 137.561 29.6003 137.561 30.2411C137.561 30.8907 137.65 31.4431 137.826 31.8983C138.008 32.3535 138.262 32.7004 138.589 32.939C138.916 33.1777 139.298 33.297 139.735 33.297C140.058 33.297 140.347 33.2307 140.604 33.0981C140.865 32.9656 141.079 32.7733 141.247 32.5214C141.419 32.2651 141.532 31.958 141.585 31.6H144.25C144.205 32.3778 143.993 33.0628 143.613 33.6549C143.238 34.2427 142.718 34.7023 142.055 35.0337C141.393 35.3652 140.608 35.5309 139.702 35.5309ZM145.311 35.332V25.1502H148.135V29.101H148.93L151.701 25.1502H155.015L151.416 30.2013L155.055 35.332H151.701L149.189 31.7193H148.135V35.332H145.311ZM158.2 31.6067L161.865 25.1502H164.65V35.332H161.958V28.8557L158.306 35.332H155.502V25.1502H158.2V31.6067ZM168.864 31.6067L172.53 25.1502H175.314V35.332H172.623V28.8557L168.971 35.332H166.167V25.1502H168.864V31.6067ZM172.046 21.5972H174.015C174.011 22.4015 173.712 23.0489 173.12 23.5394C172.532 24.0299 171.737 24.2752 170.734 24.2752C169.726 24.2752 168.929 24.0299 168.341 23.5394C167.753 23.0489 167.459 22.4015 167.459 21.5972H169.415C169.41 21.9021 169.507 22.1761 169.706 22.4192C169.91 22.6622 170.252 22.7837 170.734 22.7837C171.202 22.7837 171.538 22.6644 171.741 22.4258C171.945 22.1871 172.046 21.9109 172.046 21.5972ZM180.405 39.1502V25.1502H183.189V26.8604H183.315C183.439 26.5865 183.618 26.308 183.852 26.0252C184.091 25.738 184.4 25.4993 184.78 25.3093C185.164 25.1149 185.642 25.0176 186.212 25.0176C186.954 25.0176 187.639 25.2121 188.267 25.601C188.894 25.9854 189.396 26.5666 189.771 27.3443C190.147 28.1177 190.335 29.0877 190.335 30.2544C190.335 31.3901 190.152 32.3491 189.785 33.1313C189.422 33.9091 188.927 34.499 188.3 34.9012C187.677 35.2989 186.979 35.4978 186.205 35.4978C185.657 35.4978 185.191 35.4072 184.807 35.226C184.426 35.0448 184.115 34.8172 183.872 34.5432C183.629 34.2648 183.443 33.9842 183.315 33.7013H183.229V39.1502H180.405ZM183.169 30.2411C183.169 30.8466 183.253 31.3746 183.421 31.8254C183.589 32.2762 183.832 32.6275 184.15 32.8794C184.468 33.1269 184.855 33.2506 185.31 33.2506C185.77 33.2506 186.159 33.1246 186.477 32.8728C186.795 32.6164 187.036 32.2629 187.2 31.8121C187.367 31.357 187.451 30.8333 187.451 30.2411C187.451 29.6534 187.37 29.1363 187.206 28.69C187.043 28.2436 186.802 27.8945 186.484 27.6426C186.165 27.3907 185.774 27.2648 185.31 27.2648C184.851 27.2648 184.462 27.3863 184.144 27.6294C183.83 27.8724 183.589 28.2171 183.421 28.6635C183.253 29.1098 183.169 29.6357 183.169 30.2411ZM194.374 35.5243C193.725 35.5243 193.146 35.4116 192.638 35.1862C192.129 34.9564 191.727 34.6183 191.431 34.172C191.139 33.7212 190.994 33.16 190.994 32.4883C190.994 31.9226 191.097 31.4476 191.305 31.0631C191.513 30.6786 191.796 30.3693 192.154 30.1351C192.512 29.9008 192.918 29.7241 193.373 29.6048C193.833 29.4854 194.315 29.4015 194.818 29.3529C195.411 29.291 195.888 29.2335 196.25 29.1805C196.613 29.1231 196.876 29.0391 197.039 28.9286C197.203 28.8181 197.284 28.6546 197.284 28.4381V28.3983C197.284 27.9785 197.152 27.6537 196.887 27.4239C196.626 27.1941 196.255 27.0792 195.773 27.0792C195.265 27.0792 194.86 27.1919 194.56 27.4173C194.259 27.6382 194.06 27.9166 193.963 28.2525L191.352 28.0404C191.484 27.4217 191.745 26.887 192.134 26.4362C192.523 25.981 193.024 25.6319 193.638 25.3888C194.257 25.1414 194.973 25.0176 195.786 25.0176C196.352 25.0176 196.893 25.0839 197.41 25.2165C197.932 25.3491 198.394 25.5546 198.796 25.833C199.202 26.1114 199.523 26.4693 199.757 26.9068C199.991 27.3399 200.108 27.8592 200.108 28.4646V35.332H197.43V33.9201H197.351C197.187 34.2383 196.968 34.5189 196.694 34.762C196.42 35.0006 196.091 35.1884 195.707 35.3254C195.322 35.458 194.878 35.5243 194.374 35.5243ZM195.183 33.5754C195.598 33.5754 195.965 33.4936 196.283 33.3301C196.602 33.1622 196.851 32.9368 197.032 32.654C197.214 32.3712 197.304 32.0508 197.304 31.6928V30.6123C197.216 30.6698 197.094 30.7228 196.94 30.7714C196.789 30.8156 196.619 30.8576 196.429 30.8974C196.239 30.9327 196.049 30.9659 195.859 30.9968C195.669 31.0233 195.497 31.0476 195.342 31.0697C195.011 31.1183 194.721 31.1957 194.474 31.3017C194.226 31.4078 194.034 31.5514 193.897 31.7326C193.76 31.9094 193.691 32.1303 193.691 32.3955C193.691 32.7799 193.831 33.0738 194.109 33.2771C194.392 33.476 194.75 33.5754 195.183 33.5754ZM204.25 31.6067L207.916 25.1502H210.7V35.332H208.009V28.8557L204.356 35.332H201.552V25.1502H204.25V31.6067ZM207.432 21.5972H209.401C209.396 22.4015 209.098 23.0489 208.506 23.5394C207.918 24.0299 207.123 24.2752 206.12 24.2752C205.112 24.2752 204.314 24.0299 203.727 23.5394C203.139 23.0489 202.845 22.4015 202.845 21.5972H204.8C204.796 21.9021 204.893 22.1761 205.092 22.4192C205.295 22.6622 205.638 22.7837 206.12 22.7837C206.588 22.7837 206.924 22.6644 207.127 22.4258C207.33 22.1871 207.432 21.9109 207.432 21.5972ZM216.817 35.5309C215.788 35.5309 214.897 35.3121 214.146 34.8746C213.399 34.4327 212.823 33.8185 212.416 33.0318C212.009 32.2408 211.806 31.3238 211.806 30.2809C211.806 29.2291 212.009 28.3099 212.416 27.5233C212.823 26.7323 213.399 26.118 214.146 25.6805C214.897 25.2386 215.788 25.0176 216.817 25.0176C217.847 25.0176 218.735 25.2386 219.482 25.6805C220.234 26.118 220.812 26.7323 221.219 27.5233C221.626 28.3099 221.829 29.2291 221.829 30.2809C221.829 31.3238 221.626 32.2408 221.219 33.0318C220.812 33.8185 220.234 34.4327 219.482 34.8746C218.735 35.3121 217.847 35.5309 216.817 35.5309ZM216.831 33.3434C217.299 33.3434 217.69 33.2108 218.004 32.9457C218.318 32.6761 218.554 32.3093 218.713 31.8453C218.877 31.3813 218.959 30.8532 218.959 30.261C218.959 29.6688 218.877 29.1407 218.713 28.6767C218.554 28.2127 218.318 27.8459 218.004 27.5763C217.69 27.3068 217.299 27.172 216.831 27.172C216.358 27.172 215.96 27.3068 215.638 27.5763C215.319 27.8459 215.079 28.2127 214.915 28.6767C214.756 29.1407 214.676 29.6688 214.676 30.261C214.676 30.8532 214.756 31.3813 214.915 31.8453C215.079 32.3093 215.319 32.6761 215.638 32.9457C215.96 33.2108 216.358 33.3434 216.831 33.3434ZM230.005 29.1142V31.3349H224.688V29.1142H230.005ZM225.616 25.1502V35.332H222.918V25.1502H225.616ZM231.774 25.1502V35.332H229.096V25.1502H231.774ZM240.305 29.1142V31.3349H234.988V29.1142H240.305ZM235.916 25.1502V35.332H233.219V25.1502H235.916ZM242.075 25.1502V35.332H239.397V25.1502H242.075ZM245.289 28.279H248.331C249.679 28.279 250.731 28.6016 251.487 29.2468C252.242 29.8876 252.62 30.7449 252.62 31.8188C252.62 32.517 252.45 33.1313 252.11 33.6616C251.769 34.1875 251.279 34.5984 250.638 34.8945C249.997 35.1862 249.228 35.332 248.331 35.332H243.519V25.1502H246.217V33.1114H248.331C248.804 33.1114 249.193 32.9921 249.498 32.7534C249.803 32.5148 249.958 32.2099 249.962 31.8387C249.958 31.4454 249.803 31.125 249.498 30.8775C249.193 30.6256 248.804 30.4996 248.331 30.4996H245.289V28.279ZM253.714 35.332V25.1502H256.538V35.332H253.714ZM260.746 31.6067L264.412 25.1502H267.196V35.332H264.505V28.8557L260.852 35.332H258.048V25.1502H260.746V31.6067ZM263.928 21.5972H265.897C265.892 22.4015 265.594 23.0489 265.002 23.5394C264.414 24.0299 263.619 24.2752 262.615 24.2752C261.608 24.2752 260.81 24.0299 260.222 23.5394C259.635 23.0489 259.341 22.4015 259.341 21.5972H261.296C261.292 21.9021 261.389 22.1761 261.588 22.4192C261.791 22.6622 262.134 22.7837 262.615 22.7837C263.084 22.7837 263.42 22.6644 263.623 22.4258C263.826 22.1871 263.928 21.9109 263.928 21.5972ZM79.5175 56.332V46.1502H82.3414V50.101H83.1368L85.9077 46.1502H89.2221L85.6226 51.2013L89.2618 56.332H85.9077L83.3954 52.7193H82.3414V56.332H79.5175ZM89.7084 60.1502V46.1502H92.4924V47.8604H92.6184C92.7421 47.5865 92.9211 47.308 93.1553 47.0252C93.394 46.738 93.7033 46.4993 94.0834 46.3093C94.4678 46.1149 94.9451 46.0176 95.5152 46.0176C96.2576 46.0176 96.9426 46.2121 97.5701 46.601C98.1976 46.9854 98.6992 47.5666 99.0748 48.3443C99.4505 49.1177 99.6383 50.0877 99.6383 51.2544C99.6383 52.3901 99.4549 53.3491 99.0881 54.1313C98.7257 54.9091 98.2308 55.499 97.6032 55.9012C96.9801 56.2989 96.2819 56.4978 95.5085 56.4978C94.9606 56.4978 94.4943 56.4072 94.1099 56.226C93.7298 56.0448 93.4183 55.8172 93.1752 55.5432C92.9322 55.2648 92.7465 54.9842 92.6184 54.7013H92.5322V60.1502H89.7084ZM92.4726 51.2411C92.4726 51.8466 92.5565 52.3746 92.7245 52.8254C92.8924 53.2762 93.1354 53.6275 93.4536 53.8794C93.7718 54.1269 94.1585 54.2506 94.6137 54.2506C95.0733 54.2506 95.4621 54.1246 95.7803 53.8728C96.0985 53.6164 96.3393 53.2629 96.5029 52.8121C96.6708 52.357 96.7548 51.8333 96.7548 51.2411C96.7548 50.6534 96.673 50.1363 96.5095 49.69C96.346 49.2436 96.1051 48.8945 95.787 48.6426C95.4688 48.3907 95.0777 48.2648 94.6137 48.2648C94.1541 48.2648 93.7652 48.3863 93.447 48.6294C93.1332 48.8724 92.8924 49.2171 92.7245 49.6635C92.5565 50.1098 92.4726 50.6357 92.4726 51.2411ZM103.678 56.5243C103.028 56.5243 102.449 56.4116 101.941 56.1862C101.433 55.9564 101.03 55.6183 100.734 55.172C100.443 54.7212 100.297 54.16 100.297 53.4883C100.297 52.9226 100.401 52.4476 100.608 52.0631C100.816 51.6786 101.099 51.3693 101.457 51.1351C101.815 50.9008 102.221 50.7241 102.677 50.6048C103.136 50.4854 103.618 50.4015 104.122 50.3529C104.714 50.291 105.191 50.2335 105.554 50.1805C105.916 50.1231 106.179 50.0391 106.342 49.9286C106.506 49.8181 106.588 49.6546 106.588 49.4381V49.3983C106.588 48.9785 106.455 48.6537 106.19 48.4239C105.929 48.1941 105.558 48.0792 105.076 48.0792C104.568 48.0792 104.164 48.1919 103.863 48.4173C103.563 48.6382 103.364 48.9166 103.267 49.2525L100.655 49.0404C100.787 48.4217 101.048 47.887 101.437 47.4362C101.826 46.981 102.328 46.6319 102.942 46.3888C103.56 46.1414 104.276 46.0176 105.09 46.0176C105.655 46.0176 106.197 46.0839 106.714 46.2165C107.235 46.3491 107.697 46.5546 108.099 46.833C108.506 47.1114 108.826 47.4693 109.06 47.9068C109.294 48.3399 109.411 48.8592 109.411 49.4646V56.332H106.733V54.9201H106.654C106.49 55.2383 106.272 55.5189 105.998 55.762C105.724 56.0006 105.394 56.1884 105.01 56.3254C104.626 56.458 104.181 56.5243 103.678 56.5243ZM104.486 54.5754C104.902 54.5754 105.269 54.4936 105.587 54.3301C105.905 54.1622 106.155 53.9368 106.336 53.654C106.517 53.3712 106.608 53.0508 106.608 52.6928V51.6123C106.519 51.6698 106.398 51.7228 106.243 51.7714C106.093 51.8156 105.923 51.8576 105.733 51.8974C105.542 51.9327 105.352 51.9659 105.162 51.9968C104.972 52.0233 104.8 52.0476 104.645 52.0697C104.314 52.1183 104.025 52.1957 103.777 52.3017C103.53 52.4078 103.337 52.5514 103.2 52.7326C103.063 52.9094 102.995 53.1303 102.995 53.3955C102.995 53.7799 103.134 54.0738 103.412 54.2771C103.695 54.476 104.053 54.5754 104.486 54.5754ZM115.496 56.5309C114.448 56.5309 113.547 56.3188 112.791 55.8945C112.04 55.4659 111.461 54.8604 111.055 54.0782C110.648 53.2916 110.445 52.3614 110.445 51.2875C110.445 50.2402 110.648 49.321 111.055 48.5299C111.461 47.7389 112.033 47.1224 112.771 46.6805C113.514 46.2386 114.384 46.0176 115.383 46.0176C116.055 46.0176 116.68 46.1259 117.259 46.3424C117.842 46.5546 118.351 46.875 118.784 47.3036C119.221 47.7323 119.561 48.2714 119.805 48.921C120.048 49.5662 120.169 50.3219 120.169 51.1881V51.9637H111.572V50.2137H117.511C117.511 49.8071 117.423 49.4469 117.246 49.1332C117.069 48.8194 116.824 48.5741 116.51 48.3974C116.201 48.2162 115.84 48.1256 115.43 48.1256C115.001 48.1256 114.621 48.225 114.289 48.4239C113.962 48.6183 113.706 48.8813 113.52 49.2127C113.335 49.5397 113.24 49.9043 113.235 50.3065V51.9703C113.235 52.4741 113.328 52.9094 113.514 53.2762C113.704 53.643 113.971 53.9258 114.316 54.1246C114.661 54.3235 115.069 54.4229 115.542 54.4229C115.856 54.4229 116.143 54.3787 116.404 54.2904C116.665 54.202 116.888 54.0694 117.073 53.8926C117.259 53.7159 117.4 53.4993 117.498 53.243L120.109 53.4154C119.977 54.0429 119.705 54.5909 119.294 55.0593C118.888 55.5233 118.362 55.8857 117.716 56.1464C117.076 56.4027 116.335 56.5309 115.496 56.5309ZM121.265 56.332V46.1502H125.607C126.862 46.1502 127.854 46.3888 128.583 46.8661C129.313 47.3434 129.677 48.0217 129.677 48.9012C129.677 49.4536 129.472 49.9132 129.061 50.2799C128.65 50.6467 128.08 50.8942 127.35 51.0224C127.96 51.0666 128.48 51.2058 128.908 51.44C129.341 51.6698 129.671 51.9681 129.896 52.3349C130.126 52.7017 130.241 53.1082 130.241 53.5546C130.241 54.1335 130.086 54.6306 129.777 55.046C129.472 55.4615 129.023 55.7796 128.431 56.0006C127.843 56.2216 127.125 56.332 126.277 56.332H121.265ZM123.897 54.2174H126.277C126.67 54.2174 126.977 54.1246 127.198 53.939C127.423 53.749 127.536 53.4905 127.536 53.1635C127.536 52.8011 127.423 52.5161 127.198 52.3084C126.977 52.1007 126.67 51.9968 126.277 51.9968H123.897V54.2174ZM123.897 50.3396H125.667C125.95 50.3396 126.19 50.2998 126.389 50.2203C126.593 50.1363 126.747 50.017 126.853 49.8623C126.964 49.7077 127.019 49.5243 127.019 49.3121C127.019 48.9984 126.893 48.7531 126.641 48.5763C126.389 48.3996 126.045 48.3112 125.607 48.3112H123.897V50.3396ZM135.914 56.5309C134.867 56.5309 133.965 56.3188 133.209 55.8945C132.458 55.4659 131.879 54.8604 131.473 54.0782C131.066 53.2916 130.863 52.3614 130.863 51.2875C130.863 50.2402 131.066 49.321 131.473 48.5299C131.879 47.7389 132.451 47.1224 133.189 46.6805C133.932 46.2386 134.802 46.0176 135.801 46.0176C136.473 46.0176 137.098 46.1259 137.677 46.3424C138.261 46.5546 138.769 46.875 139.202 47.3036C139.639 47.7323 139.98 48.2714 140.223 48.921C140.466 49.5662 140.587 50.3219 140.587 51.1881V51.9637H131.99V50.2137H137.929C137.929 49.8071 137.841 49.4469 137.664 49.1332C137.487 48.8194 137.242 48.5741 136.928 48.3974C136.619 48.2162 136.259 48.1256 135.848 48.1256C135.419 48.1256 135.039 48.225 134.707 48.4239C134.38 48.6183 134.124 48.8813 133.939 49.2127C133.753 49.5397 133.658 49.9043 133.654 50.3065V51.9703C133.654 52.4741 133.746 52.9094 133.932 53.2762C134.122 53.643 134.389 53.9258 134.734 54.1246C135.079 54.3235 135.487 54.4229 135.96 54.4229C136.274 54.4229 136.561 54.3787 136.822 54.2904C137.083 54.202 137.306 54.0694 137.492 53.8926C137.677 53.7159 137.819 53.4993 137.916 53.243L140.528 53.4154C140.395 54.0429 140.123 54.5909 139.712 55.0593C139.306 55.5233 138.78 55.8857 138.135 56.1464C137.494 56.4027 136.754 56.5309 135.914 56.5309ZM140.888 59.315V54.0915H141.67C141.895 53.9501 142.077 53.7247 142.214 53.4154C142.355 53.106 142.47 52.7414 142.558 52.3216C142.651 51.9018 142.722 51.4488 142.77 50.9627C142.824 50.4722 142.87 49.9772 142.91 49.4779L143.175 46.1502H150.984V54.0915H152.561V59.315H149.87V56.332H143.645V59.315H140.888ZM144.481 54.0915H148.319V48.3245H145.574L145.468 49.4779C145.393 50.565 145.285 51.4886 145.144 52.2487C145.002 53.0044 144.781 53.6186 144.481 54.0915ZM162.296 46.1502V56.332H159.618V46.1502H162.296ZM160.99 50.618V52.8453C160.774 52.9425 160.504 53.0353 160.182 53.1237C159.859 53.2077 159.521 53.2762 159.168 53.3292C158.814 53.3822 158.483 53.4087 158.173 53.4087C156.71 53.4087 155.559 53.1082 154.72 52.5072C153.88 51.9018 153.46 50.9362 153.46 49.6104V46.137H156.125V49.6104C156.125 50.0037 156.191 50.3153 156.324 50.5451C156.461 50.7749 156.677 50.9406 156.973 51.0423C157.274 51.1395 157.674 51.1881 158.173 51.1881C158.637 51.1881 159.092 51.1395 159.539 51.0423C159.985 50.945 160.469 50.8036 160.99 50.618ZM168.382 56.5309C167.335 56.5309 166.433 56.3188 165.678 55.8945C164.926 55.4659 164.348 54.8604 163.941 54.0782C163.534 53.2916 163.331 52.3614 163.331 51.2875C163.331 50.2402 163.534 49.321 163.941 48.5299C164.348 47.7389 164.92 47.1224 165.658 46.6805C166.4 46.2386 167.271 46.0176 168.27 46.0176C168.941 46.0176 169.567 46.1259 170.146 46.3424C170.729 46.5546 171.237 46.875 171.67 47.3036C172.108 47.7323 172.448 48.2714 172.691 48.921C172.934 49.5662 173.056 50.3219 173.056 51.1881V51.9637H164.458V50.2137H170.397C170.397 49.8071 170.309 49.4469 170.132 49.1332C169.955 48.8194 169.71 48.5741 169.396 48.3974C169.087 48.2162 168.727 48.1256 168.316 48.1256C167.887 48.1256 167.507 48.225 167.176 48.4239C166.849 48.6183 166.592 48.8813 166.407 49.2127C166.221 49.5397 166.126 49.9043 166.122 50.3065V51.9703C166.122 52.4741 166.215 52.9094 166.4 53.2762C166.59 53.643 166.858 53.9258 167.202 54.1246C167.547 54.3235 167.956 54.4229 168.429 54.4229C168.742 54.4229 169.03 54.3787 169.29 54.2904C169.551 54.202 169.774 54.0694 169.96 53.8926C170.146 53.7159 170.287 53.4993 170.384 53.243L172.996 53.4154C172.863 54.0429 172.592 54.5909 172.181 55.0593C171.774 55.5233 171.248 55.8857 170.603 56.1464C169.962 56.4027 169.222 56.5309 168.382 56.5309ZM178.752 56.5309C177.709 56.5309 176.812 56.3099 176.061 55.868C175.314 55.4217 174.739 54.803 174.337 54.012C173.94 53.2209 173.741 52.3106 173.741 51.2809C173.741 50.238 173.942 49.3232 174.344 48.5366C174.75 47.7455 175.327 47.1291 176.074 46.6871C176.821 46.2408 177.709 46.0176 178.739 46.0176C179.627 46.0176 180.405 46.1789 181.072 46.5015C181.739 46.8241 182.268 47.2771 182.656 47.8604C183.045 48.4438 183.26 49.1287 183.299 49.9154H180.635C180.56 49.4072 180.361 48.9984 180.038 48.689C179.72 48.3753 179.302 48.2184 178.785 48.2184C178.348 48.2184 177.965 48.3377 177.638 48.5763C177.316 48.8106 177.064 49.1531 176.883 49.6038C176.702 50.0546 176.611 50.6003 176.611 51.2411C176.611 51.8907 176.699 52.4431 176.876 52.8983C177.057 53.3535 177.311 53.7004 177.638 53.939C177.965 54.1777 178.348 54.297 178.785 54.297C179.108 54.297 179.397 54.2307 179.654 54.0981C179.914 53.9656 180.129 53.7733 180.297 53.5214C180.469 53.2651 180.582 52.958 180.635 52.6H183.299C183.255 53.3778 183.043 54.0628 182.663 54.6549C182.287 55.2427 181.768 55.7023 181.105 56.0337C180.442 56.3652 179.658 56.5309 178.752 56.5309ZM184.361 56.332V46.1502H187.185V50.101H187.98L190.751 46.1502H194.065L190.466 51.2013L194.105 56.332H190.751L188.239 52.7193H187.185V56.332H184.361ZM197.249 52.6067L200.915 46.1502H203.699V56.332H201.008V49.8557L197.356 56.332H194.552V46.1502H197.249V52.6067ZM207.914 52.6067L211.58 46.1502H214.364V56.332H211.673V49.8557L208.02 56.332H205.216V46.1502H207.914V52.6067ZM211.096 42.5972H213.065C213.06 43.4015 212.762 44.0489 212.17 44.5394C211.582 45.0299 210.787 45.2752 209.784 45.2752C208.776 45.2752 207.978 45.0299 207.391 44.5394C206.803 44.0489 206.509 43.4015 206.509 42.5972H208.464C208.46 42.9021 208.557 43.1761 208.756 43.4192C208.959 43.6622 209.302 43.7837 209.784 43.7837C210.252 43.7837 210.588 43.6644 210.791 43.4258C210.994 43.1871 211.096 42.9109 211.096 42.5972ZM225.474 53.2099L228.231 46.1502H230.379L226.408 56.332H224.532L220.655 46.1502H222.796L225.474 53.2099ZM222.153 46.1502V56.332H219.455V46.1502H222.153ZM228.934 56.332V46.1502H231.599V56.332H228.934ZM234.415 60.1502C234.057 60.1502 233.721 60.1215 233.407 60.064C233.098 60.011 232.842 59.9425 232.639 59.8585L233.275 57.7506C233.606 57.8522 233.905 57.9075 234.17 57.9163C234.439 57.9251 234.671 57.8633 234.866 57.7307C235.065 57.5981 235.226 57.3728 235.35 57.0546L235.515 56.6237L231.863 46.1502H234.833L236.941 53.6275H237.047L239.175 46.1502H242.164L238.207 57.4324C238.017 57.9804 237.758 58.4577 237.431 58.8642C237.109 59.2752 236.7 59.5912 236.205 59.8121C235.71 60.0375 235.113 60.1502 234.415 60.1502ZM242.339 53.4485H245.077C245.09 53.7844 245.24 54.0495 245.527 54.244C245.815 54.4384 246.186 54.5356 246.641 54.5356C247.101 54.5356 247.487 54.4296 247.801 54.2174C248.115 54.0009 248.272 53.6916 248.272 53.2894C248.272 53.0419 248.21 52.8276 248.086 52.6464C247.962 52.4608 247.79 52.315 247.569 52.2089C247.348 52.1029 247.092 52.0498 246.8 52.0498H245.335V50.2004H246.8C247.238 50.2004 247.573 50.0988 247.808 49.8955C248.046 49.6922 248.166 49.4381 248.166 49.1332C248.166 48.7885 248.042 48.5123 247.794 48.3046C247.551 48.0924 247.222 47.9864 246.807 47.9864C246.387 47.9864 246.038 48.0814 245.759 48.2714C245.485 48.457 245.344 48.7001 245.335 49.0006H242.611C242.619 48.3907 242.803 47.8627 243.161 47.4163C243.523 46.97 244.009 46.6253 244.619 46.3822C245.233 46.1392 245.921 46.0176 246.681 46.0176C247.512 46.0176 248.227 46.1347 248.828 46.369C249.434 46.5988 249.898 46.928 250.22 47.3567C250.547 47.7853 250.711 48.2957 250.711 48.8879C250.711 49.427 250.534 49.8778 250.181 50.2402C249.827 50.6025 249.332 50.8611 248.696 51.0157V51.1218C249.116 51.1483 249.496 51.261 249.836 51.4599C250.176 51.6587 250.448 51.9327 250.651 52.2818C250.855 52.6265 250.956 53.0353 250.956 53.5082C250.956 54.1401 250.771 54.6815 250.399 55.1322C250.033 55.583 249.524 55.9299 248.875 56.1729C248.23 56.4116 247.489 56.5309 246.654 56.5309C245.841 56.5309 245.112 56.4138 244.467 56.1796C243.826 55.9409 243.315 55.5918 242.935 55.1322C242.56 54.6726 242.361 54.1114 242.339 53.4485ZM256.582 56.5309C255.534 56.5309 254.633 56.3188 253.877 55.8945C253.126 55.4659 252.547 54.8604 252.14 54.0782C251.734 53.2916 251.53 52.3614 251.53 51.2875C251.53 50.2402 251.734 49.321 252.14 48.5299C252.547 47.7389 253.119 47.1224 253.857 46.6805C254.6 46.2386 255.47 46.0176 256.469 46.0176C257.141 46.0176 257.766 46.1259 258.345 46.3424C258.928 46.5546 259.436 46.875 259.869 47.3036C260.307 47.7323 260.647 48.2714 260.89 48.921C261.133 49.5662 261.255 50.3219 261.255 51.1881V51.9637H252.657V50.2137H258.597C258.597 49.8071 258.508 49.4469 258.332 49.1332C258.155 48.8194 257.909 48.5741 257.596 48.3974C257.286 48.2162 256.926 48.1256 256.515 48.1256C256.087 48.1256 255.707 48.225 255.375 48.4239C255.048 48.6183 254.792 48.8813 254.606 49.2127C254.421 49.5397 254.326 49.9043 254.321 50.3065V51.9703C254.321 52.4741 254.414 52.9094 254.6 53.2762C254.79 53.643 255.057 53.9258 255.402 54.1246C255.746 54.3235 256.155 54.4229 256.628 54.4229C256.942 54.4229 257.229 54.3787 257.49 54.2904C257.75 54.202 257.974 54.0694 258.159 53.8926C258.345 53.7159 258.486 53.4993 258.583 53.243L261.195 53.4154C261.063 54.0429 260.791 54.5909 260.38 55.0593C259.973 55.5233 259.447 55.8857 258.802 56.1464C258.161 56.4027 257.421 56.5309 256.582 56.5309ZM265.049 52.6067L268.715 46.1502H271.499V56.332H268.807V49.8557L265.155 56.332H262.351V46.1502H265.049V52.6067ZM268.231 42.5972H270.199C270.195 43.4015 269.897 44.0489 269.305 44.5394C268.717 45.0299 267.921 45.2752 266.918 45.2752C265.911 45.2752 265.113 45.0299 264.525 44.5394C263.937 44.0489 263.644 43.4015 263.644 42.5972H265.599C265.595 42.9021 265.692 43.1761 265.891 43.4192C266.094 43.6622 266.436 43.7837 266.918 43.7837C267.387 43.7837 267.722 43.6644 267.926 43.4258C268.129 43.1871 268.231 42.9109 268.231 42.5972Z" fill="white"/>
<defs>
<clipPath id="clip0_20_1290">
<rect width="62.3908" height="78.6667" fill="white"/>
</clipPath>
</defs>
</svg>
